<svg width="32" height="32" viewBox="0 0 32 32" fill="none" xmlns="http://www.w3.org/2000/svg">
<path d="M24.32 10.85C22.5767 12.084 21.705 13.569 21.705 15.305C21.705 17.3837 22.7823 18.979 24.937 20.091C24.359 21.7683 23.521 23.227 22.423 24.467C21.3263 25.7077 20.325 26.3283 19.419 26.329C18.9917 26.3277 18.4083 26.1867 17.669 25.906L17.316 25.768C16.592 25.4873 15.952 25.3463 15.396 25.345C14.8713 25.345 14.2963 25.455 13.671 25.675L13.226 25.835L12.666 26.065C12.2247 26.241 11.779 26.329 11.329 26.329C10.269 26.329 9.1 25.457 7.822 23.713C5.97933 21.215 5.058 18.4927 5.058 15.546C5.05733 13.452 5.632 11.7653 6.782 10.486C7.932 9.20599 9.45467 8.56599 11.35 8.56599C12.06 8.56599 12.72 8.69599 13.338 8.95399L13.761 9.12599L14.206 9.30899C14.602 9.47565 14.922 9.55899 15.166 9.55899C15.4767 9.56032 15.8233 9.48832 16.206 9.34299L16.786 9.11299L17.222 8.95299C17.9153 8.70232 18.681 8.57699 19.519 8.57699C21.5103 8.57699 23.1103 9.33499 24.319 10.851L24.32 10.85ZM19.615 3.28699C19.6363 3.55365 19.6473 3.75932 19.648 3.90399C19.648 5.22132 19.1687 6.37699 18.21 7.37099C16.772 8.86199 16.135 8.86099 14.863 8.86099C14.8323 8.64951 14.813 8.43653 14.805 8.22299C14.805 7.10299 15.2507 6.05199 16.142 5.06999C17.032 4.08599 18.064 3.51065 19.238 3.34399C19.3213 3.32932 19.447 3.31032 19.615 3.28699Z" fill="black"/>
</svg>
