<svg width="32" height="32" viewBox="0 0 32 32" fill="none" xmlns="http://www.w3.org/2000/svg">
<g clip-path="url(#clip0_3_625)">
<path d="M16 0C7.17756 0 0 7.17756 0 16C0 24.8224 7.17756 32 16 32C24.8224 32 32 24.8224 32 16C32 7.17756 24.8224 0 16 0ZM25.5096 9.60258L20.0444 12.7579L16.7856 10.8763V4.56578L19.994 2.71343C22.0394 3.32999 23.9431 4.43329 25.5096 5.90986V9.60258ZM16.7856 27.4341V21.1235L20.0444 19.242L25.5096 22.3973V26.0901C23.943 27.5667 22.0394 28.6698 19.994 29.2865L16.7856 27.4341ZM29.8729 16C29.8729 17.0737 29.7487 18.1445 29.5036 19.1843L26.2949 21.0369L20.8298 17.8815V14.1187L26.2949 10.9634L29.5036 12.8159C29.7487 13.8555 29.8729 14.9263 29.8729 16ZM6.49043 22.3974L11.9556 19.2421L15.2143 21.1236V27.4341L12.0059 29.2866C9.96056 28.6699 8.05685 27.5668 6.49043 26.0901V22.3974ZM15.2143 4.56586V10.8764L11.9556 12.758L6.49043 9.60266V5.91003C8.05693 4.43354 9.96056 3.33024 12.0059 2.7136L15.2143 4.56586ZM11.1703 14.1186V17.8813L5.70506 21.0366L2.49642 19.1842C2.25139 18.1446 2.12721 17.0738 2.12721 15.9998C2.12721 14.9259 2.25139 13.8551 2.49642 12.8155L5.70506 10.9631L11.1703 14.1186Z" fill="#4CAF4F"/>
</g>
<defs>
<clipPath id="clip0_3_625">
<rect width="32" height="32" fill="white"/>
</clipPath>
</defs>
</svg>
