<?xml version="1.0" encoding="UTF-8"?>
<svg id="katman_1" xmlns="http://www.w3.org/2000/svg" version="1.1" viewBox="0 0 256 256">
  <!-- Generator: Adobe Illustrator 29.5.1, SVG Export Plug-In . SVG Version: 2.1.0 Build 141)  -->
  <path d="M55.14,81.4h125.63c14.03,0,25.43,11.39,25.43,25.43v77.1c0,14.03-11.39,25.43-25.43,25.43H55.14c-2.94,0-5.33-2.39-5.33-5.33v-117.29c0-2.94,2.39-5.33,5.33-5.33Z" transform="translate(273.38 17.38) rotate(90)" fill="none" stroke="#69f0ae" stroke-linecap="round" stroke-linejoin="round" stroke-width="10.66"/>
  <line x1="105.38" y1="145.38" x2="64.02" y2="145.38" fill="none" stroke="#69f0ae" stroke-linecap="round" stroke-linejoin="round" stroke-width="10.66"/>
  <circle cx="128" cy="145.38" r="21.33" fill="none" stroke="#69f0ae" stroke-linecap="round" stroke-linejoin="round" stroke-width="8.89"/>
  <rect x="112.81" y="51.99" width="30.39" height="60.77" rx="2.53" ry="2.53" transform="translate(210.38 -45.62) rotate(90)" fill="none" stroke="#69f0ae" stroke-linecap="round" stroke-linejoin="round" stroke-width="10.66"/>
  <rect x="112.81" y="177.99" width="30.39" height="60.77" rx="2.53" ry="2.53" transform="translate(336.38 80.38) rotate(90)" fill="none" stroke="#69f0ae" stroke-linecap="round" stroke-linejoin="round" stroke-width="10.66"/>
  <path d="M64.02,72.51v-19.02c0-6.87,5-12.45,11.17-12.45h105.62c6.17,0,11.17,5.57,11.17,12.45v19.02" fill="none" stroke="#69f0ae" stroke-linecap="round" stroke-linejoin="round" stroke-width="10.66"/>
  <line x1="88.61" y1="49.67" x2="88.61" y2="32.43" fill="none" stroke="#69f0ae" stroke-linecap="round" stroke-linejoin="round" stroke-width="10.66"/>
  <line x1="170.22" y1="49.67" x2="170.22" y2="32.43" fill="none" stroke="#69f0ae" stroke-linecap="round" stroke-linejoin="round" stroke-width="10.66"/>
  <line x1="191.73" y1="145.38" x2="150.37" y2="145.38" fill="none" stroke="#69f0ae" stroke-linecap="round" stroke-linejoin="round" stroke-width="10.66"/>
</svg>