<svg width="218" height="235" viewBox="0 0 218 235" fill="none" xmlns="http://www.w3.org/2000/svg">
<rect width="218" height="235" rx="32" fill="#181F22"/>
<path d="M169.835 65.171V184.787C169.835 198.146 158.99 209 145.622 209H72.2128C58.8544 209 48.0001 198.155 48.0001 184.787L48.0001 65.171C48.0001 62.3717 50.2757 60.0961 53.0749 60.0961L164.75 60.0961C167.55 60.0961 169.825 62.3717 169.825 65.171H169.835Z" stroke="#4CAF4F" stroke-width="10.66" stroke-linecap="round" stroke-linejoin="round"/>
<path d="M87.3802 134.543H48" stroke="#4CAF4F" stroke-width="10.66" stroke-linecap="round" stroke-linejoin="round"/>
<path d="M108.917 154.852C120.134 154.852 129.226 145.76 129.226 134.543C129.226 123.327 120.134 114.234 108.917 114.234C97.701 114.234 88.6084 123.327 88.6084 134.543C88.6084 145.76 97.701 154.852 108.917 154.852Z" stroke="#4CAF4F" stroke-width="8.89" stroke-linecap="round" stroke-linejoin="round"/>
<path d="M137.853 86.6225V62.505C137.853 61.1746 136.774 60.0961 135.444 60.0961H82.4006C81.0702 60.0961 79.9917 61.1746 79.9917 62.505V86.6225C79.9917 87.9529 81.0702 89.0314 82.4006 89.0314H135.444C136.774 89.0314 137.853 87.9529 137.853 86.6225Z" stroke="#4CAF4F" stroke-width="10.66" stroke-linecap="round" stroke-linejoin="round"/>
<path d="M137.853 206.591V182.474C137.853 181.143 136.774 180.065 135.444 180.065H82.4006C81.0702 180.065 79.9917 181.143 79.9917 182.474V206.591C79.9917 207.921 81.0702 209 82.4006 209H135.444C136.774 209 137.853 207.921 137.853 206.591Z" stroke="#4CAF4F" stroke-width="10.66" stroke-linecap="round" stroke-linejoin="round"/>
<path d="M48 65.1615V47.0519C48 40.5108 52.7607 35.1979 58.6353 35.1979H159.199C165.074 35.1979 169.835 40.5013 169.835 47.0519V65.1615" stroke="#4CAF4F" stroke-width="10.66" stroke-linecap="round" stroke-linejoin="round"/>
<path d="M71.413 43.4147V27" stroke="#4CAF4F" stroke-width="10.66" stroke-linecap="round" stroke-linejoin="round"/>
<path d="M149.116 43.4147V27" stroke="#4CAF4F" stroke-width="10.66" stroke-linecap="round" stroke-linejoin="round"/>
<path d="M169.597 134.543H130.217" stroke="#4CAF4F" stroke-width="10.66" stroke-linecap="round" stroke-linejoin="round"/>
</svg>
