<svg width="32" height="32" viewBox="0 0 32 32" fill="none" xmlns="http://www.w3.org/2000/svg">
<g clip-path="url(#clip0_3_643)">
<path d="M2.27618 14.169L2.27049 14.2362C2.25017 14.7943 2.42085 15.291 2.75178 15.6345C3.23736 16.1377 4.01985 16.2531 4.76901 15.9147L7.68392 14.3293L10.5433 15.8875L10.5994 15.9152C10.8891 16.046 11.1803 16.1127 11.4635 16.1127C11.9101 16.1127 12.3192 15.943 12.6164 15.6344C12.9478 15.2908 13.1183 14.7942 13.0977 14.2361L12.7137 10.9585L14.8689 8.7446L14.935 8.66739C15.3468 8.12526 15.472 7.49093 15.2785 6.92732C15.0853 6.36347 14.5971 5.94 13.9401 5.76467L10.6637 5.23357L9.25818 2.40412L9.20883 2.31936C8.82868 1.73787 8.2581 1.40381 7.64374 1.40381C7.06283 1.40381 6.50734 1.70837 6.11987 2.23936L4.41312 5.2316L1.49868 5.7209L1.40765 5.74145C0.755441 5.92781 0.274036 6.35975 0.0851195 6.92639C-0.103448 7.4929 0.0236956 8.12781 0.433808 8.66704L2.65505 10.9582L2.27618 14.169ZM1.73462 7.62597C1.66635 7.52576 1.66147 7.46341 1.66472 7.45284C1.66856 7.44228 1.71024 7.39467 1.82786 7.35473L5.46917 6.74316L7.48862 3.18986C7.56908 3.09012 7.63062 3.06899 7.64328 3.06899C7.65501 3.06899 7.71539 3.09279 7.79202 3.19718L9.55323 6.74165L13.5438 7.38294C13.6514 7.41685 13.697 7.45749 13.7023 7.46388C13.7039 7.47827 13.6937 7.53703 13.633 7.62643L10.9669 10.3661L11.434 14.3256C11.434 14.377 11.4292 14.4166 11.4235 14.4438C11.3969 14.4395 11.3582 14.4294 11.3075 14.4083L7.68345 12.4338L4.05968 14.4083C4.01033 14.4288 3.97213 14.4389 3.94368 14.4432C3.93776 14.4162 3.93311 14.3766 3.93311 14.3256L4.40047 10.3661L1.73462 7.62597Z" fill="#4CAF4F"/>
<path d="M30.5726 5.76408L27.2961 5.23298L25.8909 2.40342L25.8409 2.31912C25.4611 1.73762 24.8904 1.40356 24.2764 1.40356C23.6955 1.40356 23.14 1.70813 22.7526 2.23912L21.0456 5.23135L18.1311 5.72066L18.0401 5.74121C17.3882 5.92757 16.9064 6.35951 16.7178 6.92614C16.5292 7.49278 16.6561 8.12757 17.0663 8.6668L19.2876 10.9579L18.9087 14.1687L18.9028 14.2359C18.8822 14.7941 19.0534 15.2907 19.384 15.6343C19.8697 16.1374 20.6526 16.2528 21.401 15.9145L24.3159 14.3291L27.1755 15.8873L27.2319 15.9149C27.5212 16.0458 27.8128 16.1124 28.0956 16.1124C28.5422 16.1124 28.9513 15.9428 29.2489 15.6342C29.58 15.2906 29.7501 14.794 29.7301 14.2358L29.3458 10.9583L31.5011 8.74436L31.5672 8.66714C31.979 8.12501 32.1042 7.49069 31.9108 6.92707C31.7181 6.36346 31.2293 5.93941 30.5726 5.76408ZM30.2662 7.62584L27.5996 10.3655L28.0672 14.325C28.0672 14.3766 28.0617 14.416 28.0563 14.4432C28.0297 14.4389 27.9908 14.4288 27.9404 14.4077L24.316 12.4333L20.6928 14.4077C20.6435 14.428 20.605 14.4381 20.5768 14.4426C20.5703 14.4152 20.566 14.376 20.566 14.325L21.033 10.3655L18.3668 7.62538C18.2986 7.52482 18.2937 7.46282 18.2969 7.45225C18.3007 7.44169 18.3425 7.39408 18.46 7.35414L22.1016 6.74257L24.1207 3.18927C24.201 3.08953 24.2628 3.0684 24.2757 3.0684C24.2872 3.0684 24.3478 3.09232 24.4242 3.19659L26.1854 6.74094L30.176 7.38224C30.2839 7.41614 30.3294 7.45678 30.3348 7.46328C30.3373 7.47756 30.3265 7.53643 30.2662 7.62584Z" fill="#4CAF4F"/>
<path d="M21.9317 20.2486L18.6559 19.7175L17.2502 16.8882L17.2014 16.8032C16.8211 16.2217 16.2509 15.8876 15.6367 15.8876C15.0554 15.8876 14.4999 16.1922 14.1128 16.7235L12.4058 19.7154L9.49089 20.2053L9.40044 20.226C8.74904 20.4119 8.26729 20.8437 8.07872 21.41C7.88934 21.9768 8.01637 22.6114 8.4266 23.1506L10.6478 25.4418L10.2687 28.653L10.2634 28.7202C10.2427 29.2785 10.4138 29.7748 10.7443 30.1184C11.2305 30.6224 12.0136 30.7361 12.7622 30.3985L15.6771 28.8135L18.5355 30.3715L18.5914 30.3985C18.8813 30.5302 19.1729 30.5963 19.4556 30.5963C19.9028 30.5963 20.3114 30.4262 20.6089 30.1184C20.94 29.7748 21.1107 29.2785 21.0901 28.7202L20.7059 25.4427L22.8616 23.2285L22.9271 23.1516C23.3389 22.6091 23.4647 21.9745 23.2706 21.411C23.0779 20.8479 22.5896 20.4236 21.9317 20.2486ZM21.6261 22.1111L18.9598 24.8505L19.4269 28.8098C19.4269 28.8622 19.4221 28.9007 19.4166 28.9283C19.3895 28.9234 19.3516 28.9137 19.3006 28.8926L15.6769 26.9178L12.0529 28.8926C12.0028 28.9131 11.9651 28.9229 11.9369 28.9273C11.9312 28.9002 11.9264 28.8612 11.9264 28.8091L12.3934 24.8498L9.72695 22.1099C9.65891 22.0091 9.6538 21.9474 9.65693 21.9364C9.66158 21.9256 9.70257 21.8779 9.82031 21.8383L13.4614 21.2265L15.4808 17.6737C15.5613 17.5741 15.6228 17.5524 15.6358 17.5524C15.6476 17.5524 15.7079 17.5762 15.7843 17.6807L17.5458 21.2248L21.5358 21.8663C21.6437 21.9004 21.6886 21.9406 21.6946 21.947C21.6971 21.9626 21.6867 22.0211 21.6261 22.1111Z" fill="#4CAF4F"/>
</g>
<defs>
<clipPath id="clip0_3_643">
<rect width="32" height="32" fill="white"/>
</clipPath>
</defs>
</svg>
